# Blender v3.3.1 OBJ File: 'Hospital Design.blend'
# www.blender.org
o Portao
v 121.727135 9.700319 10.636782
v 121.727135 9.830675 10.636782
v 124.599411 9.700319 10.636782
v 124.599411 9.830675 10.636782
v 121.727135 9.700319 10.478630
v 121.727135 9.830675 10.478630
v 124.599411 9.700319 10.478630
v 124.599411 9.830675 10.478630
v 121.727135 6.403344 10.636782
v 121.727135 6.533700 10.636782
v 124.599411 6.403344 10.636782
v 124.599411 6.533700 10.636782
v 121.727135 6.403344 10.478630
v 121.727135 6.533700 10.478630
v 124.599411 6.403344 10.478630
v 124.599411 6.533700 10.478630
v 121.776924 9.790831 10.616461
v 121.894432 9.790831 10.616461
v 121.776924 6.443188 10.616461
v 121.894432 6.443188 10.616461
v 121.776924 9.790831 10.498951
v 121.894432 9.790831 10.498951
v 121.776924 6.443188 10.498951
v 121.894432 6.443188 10.498951
v 122.211266 9.795978 10.557707
v 122.211266 6.501868 10.557707
v 122.091164 9.795978 10.557707
v 122.091164 6.501868 10.557707
v 122.151215 9.795978 10.617758
v 122.151215 6.501867 10.617758
v 122.151215 6.501868 10.497656
v 122.151215 9.795978 10.497656
v 122.151215 9.795978 10.557707
v 122.151215 6.501868 10.557707
v 124.613281 10.011389 10.557707
v 124.613281 6.237524 10.557707
v 124.433281 10.011389 10.557707
v 124.433289 6.237524 10.557707
v 124.523285 10.011389 10.647707
v 124.523285 6.237523 10.647707
v 124.523285 6.237524 10.467707
v 124.523285 10.011389 10.467707
v 124.377975 9.915267 10.557707
v 124.668587 9.915268 10.557707
v 124.523285 9.915268 10.412401
v 124.523285 9.915267 10.703012
v 124.418221 9.937916 10.557707
v 124.668587 9.972661 10.557707
v 124.523285 9.972661 10.703012
v 124.523285 9.972661 10.412401
v 124.377975 9.972661 10.557707
v 124.628349 9.915268 10.557707
v 124.523285 9.915267 10.662770
v 124.523285 9.915268 10.452642
v 124.418221 9.915267 10.557707
v 124.523285 9.937916 10.452642
v 124.523285 9.937916 10.662770
v 124.628349 9.937916 10.557707
v 124.523285 9.937916 10.557707
v 124.668510 6.331584 10.562343
v 124.378067 6.331527 10.552573
v 124.528175 6.329880 10.412249
v 124.518402 6.333232 10.702667
v 124.628288 6.308930 10.561375
v 124.378052 6.274139 10.553547
v 124.518387 6.275844 10.703641
v 124.528160 6.272491 10.413223
v 124.668495 6.274197 10.563317
v 124.418282 6.331535 10.553926
v 124.519753 6.332767 10.662452
v 124.526817 6.330344 10.452463
v 124.628296 6.331576 10.560989
v 124.526817 6.307698 10.452848
v 124.519753 6.310121 10.662836
v 124.418274 6.308889 10.554310
v 124.523285 6.308909 10.557842
v 122.711266 9.795978 10.557707
v 122.711266 6.501868 10.557707
v 122.591164 9.795978 10.557707
v 122.591164 6.501868 10.557707
v 122.651215 9.795978 10.617758
v 122.651215 6.501867 10.617758
v 122.651215 6.501868 10.497656
v 122.651215 9.795978 10.497656
v 122.651215 9.795978 10.557707
v 122.651215 6.501868 10.557707
v 123.211266 9.795978 10.557707
v 123.211266 6.501868 10.557707
v 123.091164 9.795978 10.557707
v 123.091164 6.501868 10.557707
v 123.151215 9.795978 10.617758
v 123.151215 6.501867 10.617758
v 123.151215 6.501868 10.497656
v 123.151215 9.795978 10.497656
v 123.151215 9.795978 10.557707
v 123.151215 6.501868 10.557707
v 123.711266 9.795978 10.557707
v 123.711266 6.501868 10.557707
v 123.591164 9.795978 10.557707
v 123.591164 6.501868 10.557707
v 123.651215 9.795978 10.617758
v 123.651215 6.501867 10.617758
v 123.651215 6.501868 10.497656
v 123.651215 9.795978 10.497656
v 123.651215 9.795978 10.557707
v 123.651215 6.501868 10.557707
v 124.211266 9.795978 10.557707
v 124.211266 6.501868 10.557707
v 124.091164 9.795978 10.557707
v 124.091164 6.501868 10.557707
v 124.151215 9.795978 10.617758
v 124.151215 6.501867 10.617758
v 124.151215 6.501868 10.497656
v 124.151215 9.795978 10.497656
v 124.151215 9.795978 10.557707
v 124.151215 6.501868 10.557707
v 121.707344 7.743834 10.475263
v 121.707344 8.562002 10.475263
v 122.787811 7.743834 10.475263
v 122.787811 8.562002 10.475263
v 121.707344 7.743834 10.631321
v 121.707344 8.562002 10.631321
v 122.787811 7.743834 10.631321
v 122.787811 8.562002 10.631321
v 121.783112 8.401083 10.618497
v 121.783112 8.464747 10.618497
v 122.035461 8.401083 10.618497
v 122.035461 8.464747 10.618497
v 121.783112 8.401083 10.653235
v 121.783112 8.464747 10.653235
v 122.035461 8.401083 10.653235
v 122.035461 8.464747 10.653235
v 121.783112 8.421227 10.618497
v 122.035461 8.421227 10.618497
v 122.035461 8.421227 10.653235
v 121.783112 8.421227 10.653235
v 122.035461 8.413800 10.678599
v 122.035461 8.410522 10.678599
v 121.783112 8.410522 10.678599
v 121.783112 8.413800 10.678599
v 121.783112 8.127229 10.615071
v 121.783112 8.127229 10.692310
v 122.035461 8.127229 10.615071
v 122.035461 8.127229 10.692310
v 121.783112 8.106108 10.615071
v 121.783112 8.106108 10.692310
v 122.035461 8.106108 10.615071
v 122.035461 8.106108 10.692310
v 121.783112 8.127229 10.648623
v 122.035461 8.127229 10.648623
v 122.035461 8.106108 10.648623
v 121.783112 8.106108 10.648623
v 122.035461 8.077688 10.639614
v 122.035461 8.077688 10.626523
v 121.783112 8.077688 10.626523
v 121.783112 8.077688 10.639614
v 121.933044 8.526665 10.607965
v 121.910011 8.515702 10.607965
v 121.933044 8.504741 10.607965
v 121.933044 8.526665 10.640637
v 121.925369 8.515702 10.640637
v 121.910011 8.515702 10.640637
v 121.933044 8.504741 10.640637
v 122.133049 8.526665 10.607965
v 122.110008 8.515702 10.607965
v 122.133049 8.504741 10.607965
v 122.133049 8.526665 10.640637
v 122.125366 8.515702 10.640637
v 122.110008 8.515702 10.640637
v 122.133049 8.504741 10.640637
v 122.333046 8.526665 10.607965
v 122.310013 8.515702 10.607965
v 122.333046 8.504741 10.607965
v 122.333046 8.526665 10.640637
v 122.325371 8.515702 10.640637
v 122.310013 8.515702 10.640637
v 122.333046 8.504741 10.640637
v 122.533051 8.526665 10.607965
v 122.510010 8.515702 10.607965
v 122.533051 8.504741 10.607965
v 122.533051 8.526665 10.640637
v 122.525368 8.515702 10.640637
v 122.510010 8.515702 10.640637
v 122.533051 8.504741 10.640637
v 121.933044 7.867270 10.607965
v 121.910011 7.856308 10.607965
v 121.933044 7.845345 10.607965
v 121.933044 7.867270 10.640637
v 121.925369 7.856308 10.640637
v 121.910011 7.856308 10.640637
v 121.933044 7.845345 10.640637
v 122.133049 7.867270 10.607965
v 122.110008 7.856308 10.607965
v 122.133049 7.845345 10.607965
v 122.133049 7.867270 10.640637
v 122.125366 7.856308 10.640637
v 122.110008 7.856308 10.640637
v 122.133049 7.845345 10.640637
v 122.333046 7.867270 10.607965
v 122.310013 7.856308 10.607965
v 122.333046 7.845345 10.607965
v 122.333046 7.867270 10.640637
v 122.325371 7.856308 10.640637
v 122.310013 7.856308 10.640637
v 122.333046 7.845345 10.640637
v 122.533051 7.867270 10.607965
v 122.510010 7.856308 10.607965
v 122.533051 7.845345 10.607965
v 122.533051 7.867270 10.640637
v 122.525368 7.856308 10.640637
v 122.510010 7.856308 10.640637
v 122.533051 7.845345 10.640637
v 121.968636 8.297424 10.623154
v 121.898865 8.330628 10.623154
v 121.829086 8.297424 10.623154
v 121.829086 8.231016 10.623154
v 121.898865 8.197812 10.623154
v 121.968636 8.231016 10.623154
v 121.968636 8.297424 10.669948
v 121.939590 8.283604 10.654460
v 121.898865 8.330628 10.669948
v 121.829086 8.297424 10.669948
v 121.829086 8.231016 10.669948
v 121.898865 8.197812 10.669948
v 121.968636 8.231016 10.669948
v 121.939590 8.283604 10.669948
v 121.898865 8.302987 10.669948
v 121.858131 8.283604 10.669948
v 121.858131 8.244837 10.669948
v 121.898865 8.225453 10.669948
v 121.939590 8.244837 10.669948
v 121.898865 8.264220 10.654460
v 121.898865 8.302987 10.654460
v 121.858131 8.283604 10.654460
v 121.858131 8.244837 10.654460
v 121.898865 8.225453 10.654460
v 121.939590 8.244837 10.654460
v 122.578621 8.093899 10.589373
v 122.578621 8.224255 10.589373
v 124.556885 8.093899 10.589373
v 124.556885 8.224255 10.589373
v 122.578621 8.093899 10.526039
v 122.578621 8.224255 10.526039
v 124.556885 8.093899 10.526039
v 124.556885 8.224255 10.526039
vn 0.0000 0.0000 1.0000
vn -1.0000 0.0000 -0.0000
vn 0.0000 0.0000 -1.0000
vn 1.0000 0.0000 0.0000
vn 0.0000 1.0000 0.0000
vn 0.0000 -1.0000 0.0000
vn -0.8165 0.5774 -0.0000
vn -0.0000 -0.5774 0.8165
vn -0.0000 0.5774 0.8165
vn 0.8165 -0.5773 -0.0000
vn 0.8165 0.5774 0.0000
vn -0.8165 -0.5773 0.0000
vn 0.0000 0.5773 -0.8165
vn -0.0000 -0.5774 -0.8165
vn 0.7071 0.0000 0.7071
vn -0.7071 0.0000 -0.7071
vn -0.7071 0.0000 0.7071
vn 0.7071 0.0000 -0.7071
vn -0.7304 0.0119 0.6829
vn -0.7305 0.0118 0.6829
vn 0.0002 0.9999 -0.0115
vn 0.7305 -0.0119 -0.6828
vn 0.7305 -0.0117 -0.6828
vn 0.7305 -0.0120 -0.6828
vn 0.6829 0.0129 0.7304
vn 0.6829 0.0122 0.7304
vn 0.6829 0.0130 0.7304
vn -0.6829 -0.0124 -0.7304
vn -0.6829 -0.0122 -0.7304
vn -0.6829 -0.0120 -0.7304
vn 0.6829 0.0123 0.7304
vn -0.7305 0.0119 0.6828
vn 0.7305 -0.0114 -0.6829
vn 0.7304 -0.0121 -0.6829
vn 0.7305 -0.0113 -0.6829
vn 0.0000 0.5774 -0.8165
vn 0.0000 -0.9372 0.3488
vn 0.0000 0.9597 0.2810
vn 0.0000 0.9597 0.2811
vn 1.0000 0.0001 0.0000
vn -1.0000 0.0001 0.0000
vn 0.0000 -0.3738 -0.9275
vn 0.0000 -0.3022 0.9532
vn -0.4297 -0.9030 0.0000
vn -0.4296 -0.9030 0.0000
vn -0.4298 -0.9029 0.0000
vn -0.4297 0.9030 0.0000
vn -0.4296 0.9030 0.0000
vn -0.4295 -0.9030 0.0000
vn -0.4298 0.9029 0.0000
vn -0.4300 0.9028 0.0000
vn -0.4295 -0.9031 0.0000
vn -0.4295 0.9030 0.0000
vn -0.4294 0.9031 0.0000
vn -0.4295 0.9031 0.0000
vn -0.4293 0.9031 0.0000
vn 0.4297 0.9030 0.0000
vn 0.4297 -0.9030 0.0000
vn 0.4298 -0.9029 0.0000
vn 0.4296 -0.9030 0.0000
vn 0.4296 0.9030 0.0000
vn -0.6829 -0.0125 -0.7304
vn -0.6829 -0.0123 -0.7304
vn -0.7305 0.0120 0.6828
vn -0.4300 -0.9028 0.0000
vn -0.4293 -0.9032 0.0000
vn 0.4298 0.9029 0.0000
s 1
f 39//1 38//2 40//1
f 41//3 35//4 36//4
f 39//1 36//4 35//4
s 2
f 5//2 2//2 6//2
s 3
f 1//1 4//1 2//1
s 4
f 3//4 8//4 4//4
s 5
f 2//5 8//5 6//5
s 6
f 5//6 3//6 1//6
s 7
f 7//3 6//3 8//3
s 8
f 13//2 10//2 14//2
s 9
f 9//1 12//1 10//1
s 10
f 11//4 16//4 12//4
s 11
f 10//5 16//5 14//5
s 12
f 13//6 11//6 9//6
s 13
f 15//3 14//3 16//3
s 14
f 21//5 18//5 22//5
s 15
f 17//1 20//1 18//1
s 16
f 19//6 24//6 20//6
s 17
f 18//4 24//4 22//4
s 18
f 21//2 19//2 17//2
s 19
f 23//3 22//3 24//3
s 20
f 27//7 30//8 29//9
s 21
f 81//9 78//10 77//11
s 20
f 28//12 32//13 31//14
f 34//6 28//12 31//14
f 33//5 25//11 32//13
f 29//9 25//11 33//5
f 30//8 28//12 34//6
f 31//14 25//11 26//10
f 26//10 30//8 34//6
f 29//9 33//5 27//7
f 27//7 33//5 32//13
f 26//10 34//6 31//14
s 22
f 54//15 47//15 55//15
s 23
f 46//6 52//6 44//6
f 43//6 54//6 55//6
s 24
f 51//16 45//16 43//16
s 25
f 52//17 56//17 54//17
s 26
f 47//18 53//18 55//18
s 23
f 46//6 55//6 53//6
s 27
f 50//18 44//18 45//18
s 28
f 46//17 51//17 43//17
s 29
f 44//15 49//15 46//15
s 30
f 57//16 52//16 53//16
s 31
f 58//6 57//6 59//6
f 56//6 58//6 59//6
f 56//6 59//6 47//6
f 59//6 57//6 47//6
s 32
f 71//19 64//20 72//20
s 33
f 63//21 69//21 61//21
f 62//21 72//21 60//21
s 34
f 68//22 62//23 60//24
s 35
f 71//25 75//26 73//27
s 36
f 72//28 74//29 70//29
s 33
f 63//21 72//21 70//21
s 37
f 67//30 61//29 62//30
s 38
f 63//31 68//26 60//26
s 39
f 61//32 66//32 63//32
s 40
f 74//33 69//34 70//35
s 41
f 75//21 74//21 76//21
f 73//21 75//21 76//21
f 73//21 76//21 64//21
f 76//21 74//21 64//21
s 21
f 79//7 82//8 81//9
s 42
f 91//9 88//10 87//11
s 21
f 83//14 79//7 84//36
f 86//6 80//12 83//14
f 85//5 77//11 84//36
f 81//9 77//11 85//5
f 82//8 80//12 86//6
f 83//14 77//11 78//10
f 78//10 82//8 86//6
f 81//9 85//5 79//7
f 79//7 85//5 84//36
f 78//10 86//6 83//14
s 42
f 89//7 92//8 91//9
s 43
f 101//9 98//10 97//11
s 42
f 93//14 89//7 94//36
f 96//6 90//12 93//14
f 95//5 87//11 94//36
f 91//9 87//11 95//5
f 92//8 90//12 96//6
f 93//14 87//11 88//10
f 88//10 92//8 96//6
f 91//9 95//5 89//7
f 89//7 95//5 94//36
f 88//10 96//6 93//14
s 43
f 99//7 102//8 101//9
s 44
f 111//9 108//10 107//11
s 43
f 103//14 99//7 104//36
f 106//6 100//12 103//14
f 105//5 97//11 104//36
f 101//9 97//11 105//5
f 102//8 100//12 106//6
f 103//14 97//11 98//10
f 98//10 102//8 106//6
f 101//9 105//5 99//7
f 99//7 105//5 104//36
f 98//10 106//6 103//14
s 44
f 109//7 112//8 111//9
f 113//14 109//7 114//36
f 116//6 110//12 113//14
f 115//5 107//11 114//36
f 111//9 107//11 115//5
f 112//8 110//12 116//6
f 113//14 107//11 108//10
f 108//10 112//8 116//6
f 111//9 115//5 109//7
f 109//7 115//5 114//36
f 108//10 116//6 113//14
s 45
f 118//3 119//3 117//3
s 46
f 120//4 123//4 119//4
s 47
f 124//1 121//1 123//1
s 48
f 122//2 117//2 121//2
s 49
f 123//6 117//6 119//6
s 50
f 120//5 122//5 124//5
s 51
f 126//3 134//3 133//3
s 52
f 128//4 135//4 134//4
s 53
f 132//1 136//1 135//1
s 54
f 130//2 133//2 136//2
s 55
f 131//6 125//6 127//6
s 56
f 128//5 130//5 132//5
s 54
f 136//2 125//2 129//2
f 136//2 139//2 140//2
s 52
f 134//4 131//4 127//4
s 51
f 133//3 127//3 125//3
s 57
f 137//1 139//1 138//1
s 58
f 131//37 139//37 129//37
s 52
f 135//4 138//4 131//4
s 59
f 136//38 137//38 135//39
s 60
f 142//5 150//5 149//5
s 61
f 144//4 151//40 150//4
s 62
f 148//6 152//6 151//6
s 63
f 146//2 149//2 152//41
s 64
f 147//3 141//3 143//3
s 65
f 144//1 146//1 148//1
s 63
f 152//41 141//2 145//41
f 152//41 155//41 156//2
s 61
f 150//4 147//40 143//4
s 60
f 149//5 143//5 141//5
s 66
f 153//6 155//6 154//6
s 67
f 147//42 155//42 145//42
s 61
f 151//40 154//40 147//40
s 68
f 152//43 153//43 151//43
s 69
f 160//1 162//1 161//1
f 162//1 163//1 161//1
s 70
f 160//4 159//4 157//4
s 71
f 159//44 162//45 158//46
s 72
f 158//47 160//47 157//48
s 73
f 168//1 170//1 167//1
f 167//1 169//1 168//1
f 169//1 170//1 168//1
s 74
f 167//4 166//4 164//4
s 75
f 166//49 169//49 165//45
s 76
f 165//48 167//48 164//48
s 77
f 175//1 177//1 174//1
f 174//1 176//1 175//1
f 176//1 177//1 175//1
s 78
f 174//4 173//4 171//4
s 79
f 173//44 176//46 172//45
s 80
f 172//50 174//50 171//51
s 81
f 182//1 184//1 181//1
f 181//1 183//1 182//1
f 183//1 184//1 182//1
s 82
f 181//4 180//4 178//4
s 83
f 180//45 183//52 179//46
s 84
f 179//53 181//48 178//54
s 85
f 188//1 190//1 189//1
f 190//1 191//1 189//1
s 86
f 188//4 187//4 185//4
s 87
f 187//44 190//45 186//46
s 88
f 186//47 188//47 185//48
s 89
f 196//1 198//1 195//1
f 195//1 197//1 196//1
f 197//1 198//1 196//1
s 90
f 195//4 194//4 192//4
s 91
f 194//45 197//45 193//45
s 92
f 193//48 195//48 192//48
s 93
f 203//1 205//1 202//1
f 202//1 204//1 203//1
f 204//1 205//1 203//1
s 94
f 202//4 201//4 199//4
s 95
f 201//44 204//46 200//45
s 96
f 200//50 202//47 199//51
s 97
f 210//1 212//1 209//1
f 209//1 211//1 210//1
f 211//1 212//1 210//1
s 98
f 209//4 208//4 206//4
s 99
f 208//45 211//52 207//46
s 100
f 207//55 209//48 206//56
s 69
f 161//1 163//1 160//1
s 101
f 224//1 229//1 223//1
f 221//1 228//1 227//1
f 223//1 228//1 222//1
f 219//1 227//1 226//1
f 219//1 231//1 225//1
s 102
f 216//2 222//2 215//2
s 103
f 214//57 219//57 213//57
s 104
f 216//44 224//44 223//46
s 105
f 213//4 225//4 218//4
s 106
f 215//47 221//47 214//47
s 107
f 218//58 224//58 217//59
s 108
f 226//2 237//2 231//2
s 109
f 227//46 220//44 226//44
s 110
f 229//4 234//4 228//4
s 111
f 228//58 233//60 227//60
s 112
f 230//61 235//57 229//57
s 113
f 230//50 237//47 236//50
s 114
f 232//1 237//1 220//1
f 220//1 233//1 232//1
f 233//1 234//1 232//1
f 234//1 235//1 232//1
f 235//1 236//1 232//1
f 236//1 237//1 232//1
s 115
f 242//2 239//2 243//2
s 116
f 238//1 241//1 239//1
s 117
f 240//4 245//4 241//4
s 118
f 239//5 245//5 243//5
s 119
f 242//6 240//6 238//6
s 120
f 244//3 243//3 245//3
s 101
f 225//1 230//1 224//1
s 20
f 29//9 26//10 25//11
s 1
f 37//2 41//3 38//2
s 33
f 61//21 71//21 62//21
s 23
f 45//6 52//6 54//6
s 85
f 189//1 191//1 188//1
s 1
f 39//1 37//2 38//2
f 41//3 42//3 35//4
f 39//1 40//1 36//4
s 2
f 5//2 1//2 2//2
s 3
f 1//1 3//1 4//1
s 4
f 3//4 7//4 8//4
s 5
f 2//5 4//5 8//5
s 6
f 5//6 7//6 3//6
s 7
f 7//3 5//3 6//3
s 8
f 13//2 9//2 10//2
s 9
f 9//1 11//1 12//1
s 10
f 11//4 15//4 16//4
s 11
f 10//5 12//5 16//5
s 12
f 13//6 15//6 11//6
s 13
f 15//3 13//3 14//3
s 14
f 21//5 17//5 18//5
s 15
f 17//1 19//1 20//1
s 16
f 19//6 23//6 24//6
s 17
f 18//4 20//4 24//4
s 18
f 21//2 23//2 19//2
s 19
f 23//3 21//3 22//3
s 20
f 27//7 28//12 30//8
s 21
f 81//9 82//8 78//10
s 20
f 28//12 27//7 32//13
f 31//14 32//13 25//11
s 22
f 54//15 56//15 47//15
s 23
f 46//6 53//6 52//6
f 43//6 45//6 54//6
s 24
f 51//16 50//16 45//16
s 25
f 52//17 58//17 56//17
s 26
f 47//18 57//18 53//18
s 23
f 46//6 43//6 55//6
s 27
f 50//18 48//18 44//18
s 28
f 46//17 49//17 51//17
s 29
f 44//15 48//15 49//15
s 30
f 57//16 58//16 52//16
s 32
f 71//19 73//19 64//20
s 33
f 63//21 70//21 69//21
f 62//21 71//21 72//21
s 34
f 68//22 67//23 62//23
s 35
f 71//25 69//26 75//26
s 36
f 72//28 64//62 74//29
s 33
f 63//21 60//21 72//21
s 37
f 67//30 65//63 61//29
s 38
f 63//31 66//31 68//26
s 39
f 61//32 65//64 66//32
s 40
f 74//33 75//34 69//34
s 21
f 79//7 80//12 82//8
s 42
f 91//9 92//8 88//10
s 21
f 83//14 80//12 79//7
f 83//14 84//36 77//11
s 42
f 89//7 90//12 92//8
s 43
f 101//9 102//8 98//10
s 42
f 93//14 90//12 89//7
f 93//14 94//36 87//11
s 43
f 99//7 100//12 102//8
s 44
f 111//9 112//8 108//10
s 43
f 103//14 100//12 99//7
f 103//14 104//36 97//11
s 44
f 109//7 110//12 112//8
f 113//14 110//12 109//7
f 113//14 114//36 107//11
s 45
f 118//3 120//3 119//3
s 46
f 120//4 124//4 123//4
s 47
f 124//1 122//1 121//1
s 48
f 122//2 118//2 117//2
s 49
f 123//6 121//6 117//6
s 50
f 120//5 118//5 122//5
s 51
f 126//3 128//3 134//3
s 52
f 128//4 132//4 135//4
s 53
f 132//1 130//1 136//1
s 54
f 130//2 126//2 133//2
s 55
f 131//6 129//6 125//6
s 56
f 128//5 126//5 130//5
s 54
f 136//2 133//2 125//2
f 136//2 129//2 139//2
s 52
f 134//4 135//4 131//4
s 51
f 133//3 134//3 127//3
s 57
f 137//1 140//1 139//1
s 58
f 131//37 138//37 139//37
s 52
f 135//4 137//4 138//4
s 59
f 136//38 140//38 137//38
s 60
f 142//5 144//5 150//5
s 61
f 144//4 148//4 151//40
s 62
f 148//6 146//6 152//6
s 63
f 146//2 142//2 149//2
s 64
f 147//3 145//3 141//3
s 65
f 144//1 142//1 146//1
s 63
f 152//41 149//2 141//2
f 152//41 145//41 155//41
s 61
f 150//4 151//40 147//40
s 60
f 149//5 150//5 143//5
s 66
f 153//6 156//6 155//6
s 67
f 147//42 154//42 155//42
s 61
f 151//40 153//4 154//40
s 68
f 152//43 156//43 153//43
s 70
f 160//4 163//4 159//4
s 71
f 159//44 163//52 162//45
s 72
f 158//47 162//50 160//47
s 74
f 167//4 170//4 166//4
s 75
f 166//49 170//52 169//49
s 76
f 165//48 169//48 167//48
s 78
f 174//4 177//4 173//4
s 79
f 173//44 177//65 176//46
s 80
f 172//50 176//48 174//50
s 82
f 181//4 184//4 180//4
s 83
f 180//45 184//66 183//52
s 84
f 179//53 183//50 181//48
s 86
f 188//4 191//4 187//4
s 87
f 187//44 191//49 190//45
s 88
f 186//47 190//50 188//47
s 90
f 195//4 198//4 194//4
s 91
f 194//45 198//49 197//45
s 92
f 193//48 197//53 195//48
s 94
f 202//4 205//4 201//4
s 95
f 201//44 205//65 204//46
s 96
f 200//50 204//53 202//47
s 98
f 209//4 212//4 208//4
s 99
f 208//45 212//66 211//52
s 100
f 207//55 211//50 209//48
s 101
f 224//1 230//1 229//1
f 221//1 222//1 228//1
f 223//1 229//1 228//1
f 219//1 221//1 227//1
f 219//1 226//1 231//1
s 102
f 216//2 223//2 222//2
s 103
f 214//57 221//67 219//57
s 104
f 216//44 217//44 224//44
s 105
f 213//4 219//4 225//4
s 106
f 215//47 222//50 221//47
s 107
f 218//58 225//58 224//58
s 108
f 226//2 220//2 237//2
s 109
f 227//46 233//46 220//44
s 110
f 229//4 235//4 234//4
s 111
f 228//58 234//58 233//60
s 112
f 230//61 236//61 235//57
s 113
f 230//50 231//47 237//47
s 115
f 242//2 238//2 239//2
s 116
f 238//1 240//1 241//1
s 117
f 240//4 244//4 245//4
s 118
f 239//5 241//5 245//5
s 119
f 242//6 244//6 240//6
s 120
f 244//3 242//3 243//3
s 101
f 225//1 231//1 230//1
s 20
f 29//9 30//8 26//10
s 1
f 37//2 42//3 41//3
s 33
f 61//21 69//21 71//21
s 23
f 45//6 44//6 52//6
